<svg width="212" height="111" viewBox="0 0 212 111" fill="none" xmlns="http://www.w3.org/2000/svg">
<path d="M76.3484 17.6657L136.713 25.2761L132.538 58.2481L124.87 57.2814L123.722 66.3487L116.61 56.24L72.1733 50.6377L76.3484 17.6657Z" fill="#FBB403"/>
<path d="M125.757 30.9474L84.3603 24.9069L83.7526 29.0559L125.149 35.0963L125.757 30.9474Z" fill="white"/>
<path d="M105.756 36.4938L83.3538 33.0148L82.708 37.1579L105.11 40.637L105.756 36.4938Z" fill="white"/>
<path d="M116.445 45.7703L82.3748 40.6599L81.7505 44.8064L115.821 49.9168L116.445 45.7703Z" fill="white"/>
<path d="M178.915 65.3374C187.123 65.8579 194.67 66.959 201.557 68.6406L196.873 109.36C193.87 109.801 190.867 110.021 187.864 110.021C184.901 110.021 181.818 109.821 178.615 109.42C175.412 109.06 172.429 108.6 169.666 108.039C164.061 106.918 160.457 105.917 158.855 105.036C157.294 104.155 156.193 103.375 155.552 102.694C154.952 101.973 154.491 100.872 154.171 99.3906C153.851 97.8691 153.51 96.0674 153.15 93.9854C152.79 91.8633 152.469 89.561 152.189 87.0786C151.548 81.3931 151.228 76.8086 151.228 73.3252C151.228 69.8018 151.248 67.0991 151.288 65.2173C151.328 63.2954 151.408 61.4136 151.528 59.5718C151.929 52.1646 152.409 47.6001 152.97 45.8784C153.53 44.1567 154.051 42.8354 154.531 41.9146C155.012 40.9536 155.692 40.2129 156.573 39.6924C159.977 37.7305 166.223 35.6284 175.312 33.3862L181.618 31.8848C187.103 30.6035 192.108 29.6226 196.632 28.9419L199.815 43.416C198.654 43.6562 197.173 43.9365 195.371 44.2568L183.059 46.2988C175.211 47.5801 170.267 48.561 168.225 49.2417C167.063 53.8062 166.483 60.4126 166.483 69.061C166.483 80.4722 167.184 88.9004 168.585 94.3457C173.31 96.0674 178.174 96.9282 183.179 96.9282H184.32C184.681 96.9282 185.001 96.8882 185.281 96.8081L187.023 78.7305L177.414 78.25L178.915 65.3374Z" fill="#FBB403"/>
<path d="M19.6758 92.4453C21.363 92.4453 22.6699 91.9938 23.5967 91.0908C24.5234 90.1641 24.9749 88.8809 24.9512 87.2412H36.2148C36.2148 91.471 34.694 94.9404 31.6523 97.6494C28.6344 100.358 24.7373 101.713 19.9609 101.713C14.3529 101.713 9.93294 99.9544 6.70117 96.4375C3.4694 92.9206 1.85352 88.0492 1.85352 81.8232V81.3242C1.85352 77.4271 2.56641 73.9933 3.99219 71.0229C5.44173 68.0288 7.521 65.7357 10.23 64.1436C12.939 62.5277 16.147 61.7197 19.854 61.7197C24.868 61.7197 28.8483 63.1099 31.7949 65.8901C34.7415 68.6704 36.2148 72.4368 36.2148 77.1895H24.9512C24.9512 75.1934 24.464 73.6606 23.4897 72.5913C22.5155 71.522 21.2085 70.9873 19.5688 70.9873C16.4559 70.9873 14.638 72.9715 14.1152 76.9399C13.9489 78.1994 13.8657 79.9341 13.8657 82.144C13.8657 86.0174 14.3291 88.7026 15.2559 90.1997C16.1826 91.6968 17.6559 92.4453 19.6758 92.4453ZM53.0391 66.5674C55.6055 63.3356 58.8848 61.7197 62.877 61.7197C67.1305 61.7197 70.3385 62.9792 72.501 65.498C74.6634 68.0169 75.7684 71.7358 75.8159 76.6548V101H63.7681V76.9399C63.7681 74.8963 63.3522 73.3993 62.5205 72.4487C61.6888 71.4744 60.2749 70.9873 58.2788 70.9873C55.8075 70.9873 54.0609 71.7715 53.0391 73.3398V101H41.0269V46.25H53.0391V66.5674ZM104.225 101C103.797 100.216 103.417 99.0633 103.084 97.5425C100.874 100.323 97.7848 101.713 93.8164 101.713C90.1807 101.713 87.0915 100.62 84.5488 98.4336C82.0062 96.2236 80.7349 93.4552 80.7349 90.1284C80.7349 85.9461 82.2795 82.7856 85.3687 80.647C88.4578 78.5083 92.9491 77.439 98.8423 77.439H102.549V75.4072C102.549 71.8665 101.017 70.0962 97.9512 70.0962C95.0996 70.0962 93.6738 71.4982 93.6738 74.3022H81.6616C81.6616 70.5715 83.2419 67.5417 86.4023 65.2129C89.5866 62.8841 93.6382 61.7197 98.5571 61.7197C103.476 61.7197 107.361 62.9198 110.213 65.3198C113.064 67.7199 114.526 71.0111 114.597 75.1934V92.2671C114.645 95.8078 115.191 98.5168 116.237 100.394V101H104.225ZM96.7036 93.1582C98.2007 93.1582 99.4364 92.8374 100.411 92.1958C101.409 91.5542 102.122 90.8294 102.549 90.0215V83.855H99.0562C94.8739 83.855 92.7827 85.7323 92.7827 89.4868C92.7827 90.5799 93.151 91.471 93.8877 92.1602C94.6243 92.8255 95.563 93.1582 96.7036 93.1582ZM135.271 52.8442V62.4326H141.616V70.7734H135.271V88.4175C135.271 89.867 135.532 90.877 136.055 91.4473C136.578 92.0176 137.612 92.3027 139.156 92.3027C140.344 92.3027 141.342 92.2314 142.15 92.0889V100.679C139.988 101.368 137.73 101.713 135.378 101.713C131.243 101.713 128.19 100.739 126.217 98.79C124.245 96.8415 123.259 93.883 123.259 89.9146V70.7734H118.34V62.4326H123.259V52.8442H135.271Z" fill="white"/>
<rect width="58" height="4" transform="translate(0 99)" fill="#FBB403"/>
</svg>
