<svg width="303" height="54" viewBox="0 0 303 54" fill="none" xmlns="http://www.w3.org/2000/svg">
<path d="M74.26 47H69.16C68.32 47 67.9 46.58 67.9 45.74V9.68C67.9 8.84 68.32 8.42 69.16 8.42H88.3C89.1 8.42 89.5 8.84 89.5 9.68V13.76C89.5 14.6 89.1 15.02 88.3 15.02H76.24C75.76 15.02 75.52 15.24 75.52 15.68V24.98C75.52 25.46 75.76 25.7 76.24 25.7H86.5C87.34 25.7 87.76 26.12 87.76 26.96V30.98C87.76 31.86 87.34 32.3 86.5 32.3H76.24C75.76 32.3 75.52 32.52 75.52 32.96V45.74C75.52 46.58 75.1 47 74.26 47ZM102.832 9.68V45.74C102.832 46.58 102.412 47 101.572 47H96.4717C95.6317 47 95.2117 46.58 95.2117 45.74V9.68C95.2117 8.84 95.6317 8.42 96.4717 8.42H101.572C102.412 8.42 102.832 8.84 102.832 9.68ZM117.268 47H112.168C111.328 47 110.908 46.58 110.908 45.74V9.68C110.908 8.84 111.328 8.42 112.168 8.42H126.448C129.568 8.42 132.008 9.28 133.768 11C135.528 12.72 136.408 15.14 136.408 18.26V22.94C136.408 27.46 134.628 30.46 131.068 31.94V32.18L137.488 45.56C137.848 46.52 137.508 47 136.468 47H131.608C130.888 47 130.368 46.92 130.048 46.76C129.728 46.6 129.468 46.26 129.268 45.74L123.268 32.78H119.248C118.768 32.78 118.528 33 118.528 33.44V45.74C118.528 46.58 118.108 47 117.268 47ZM119.188 26.66H125.068C126.348 26.66 127.288 26.4 127.888 25.88C128.488 25.32 128.788 24.44 128.788 23.24V18.56C128.788 17.32 128.488 16.42 127.888 15.86C127.288 15.3 126.348 15.02 125.068 15.02H119.188C118.748 15.02 118.528 15.24 118.528 15.68V26C118.528 26.44 118.748 26.66 119.188 26.66ZM164.6 47H144.98C144.14 47 143.72 46.58 143.72 45.74V9.68C143.72 8.84 144.14 8.42 144.98 8.42H164.6C165.4 8.42 165.8 8.84 165.8 9.68V13.76C165.8 14.6 165.4 15.02 164.6 15.02H152.06C151.58 15.02 151.34 15.24 151.34 15.68V23.48C151.34 23.92 151.58 24.14 152.06 24.14H162.32C163.16 24.14 163.58 24.56 163.58 25.4V29.48C163.58 30.32 163.16 30.74 162.32 30.74H152.06C151.58 30.74 151.34 30.96 151.34 31.4V39.74C151.34 40.18 151.58 40.4 152.06 40.4H164.6C165.4 40.4 165.8 40.82 165.8 41.66V45.74C165.8 46.58 165.4 47 164.6 47Z" fill="#223645"/>
<path d="M199.84 47H180.58C180.02 47 179.74 46.72 179.74 46.16V9.26C179.74 8.7 180.02 8.42 180.58 8.42H183.28C183.84 8.42 184.12 8.7 184.12 9.26V42.5C184.12 42.86 184.32 43.04 184.72 43.04H199.84C200.4 43.04 200.68 43.34 200.68 43.94V46.16C200.68 46.72 200.4 47 199.84 47ZM207.29 47H204.29C203.77 47 203.59 46.72 203.75 46.16L214.97 9.26C215.13 8.7 215.51 8.42 216.11 8.42H220.43C221.03 8.42 221.41 8.7 221.57 9.26L232.79 46.16C232.95 46.72 232.77 47 232.25 47H229.19C228.75 47 228.47 46.72 228.35 46.16L225.53 37.4H211.01L208.19 46.16C208.03 46.72 207.73 47 207.29 47ZM218.15 12.92L211.97 33.68H224.57L218.39 12.92H218.15ZM242.693 47H240.053C239.493 47 239.213 46.72 239.213 46.16V9.26C239.213 8.7 239.493 8.42 240.053 8.42H242.513C242.993 8.42 243.313 8.58 243.473 8.9L260.033 38H260.273V9.26C260.273 8.7 260.553 8.42 261.113 8.42H263.753C264.313 8.42 264.593 8.7 264.593 9.26V46.16C264.593 46.72 264.313 47 263.753 47H261.533C261.093 47 260.673 46.74 260.273 46.22L243.773 17.42H243.533V46.16C243.533 46.72 243.253 47 242.693 47ZM279.056 43.16H289.136C292.496 43.16 294.176 41.42 294.176 37.94V17.48C294.176 14 292.496 12.26 289.136 12.26H279.056C278.656 12.26 278.456 12.44 278.456 12.8V42.62C278.456 42.98 278.656 43.16 279.056 43.16ZM274.076 46.16V9.26C274.076 8.7 274.356 8.42 274.916 8.42H289.676C292.436 8.42 294.596 9.22 296.156 10.82C297.756 12.38 298.556 14.54 298.556 17.3V38.12C298.556 40.88 297.756 43.06 296.156 44.66C294.596 46.22 292.436 47 289.676 47H274.916C274.356 47 274.076 46.72 274.076 46.16Z" fill="#223645"/>
<path d="M32.3489 53.9859C44.7007 53.9859 54.7137 44.6837 54.7137 33.2087C54.7137 21.7338 44.7007 12.4315 32.3489 12.4315C19.9972 12.4315 9.98408 21.7338 9.98408 33.2087C9.98408 44.6837 19.9972 53.9859 32.3489 53.9859Z" fill="#FF9600"/>
<path fill-rule="evenodd" clip-rule="evenodd" d="M35.3487 2.63056L49.9733 20.4181C50.6544 21.2464 50.535 22.4701 49.7066 23.1512C49.3591 23.4369 48.9233 23.593 48.4734 23.593H16.2244C15.152 23.593 14.2826 22.7237 14.2826 21.6513C14.2826 21.2014 14.4388 20.7655 14.7245 20.4181L29.3491 2.63056C30.7112 0.973804 33.1586 0.734986 34.8153 2.09714C35.01 2.25722 35.1887 2.43586 35.3487 2.63056Z" fill="#FF9600"/>
<path fill-rule="evenodd" clip-rule="evenodd" d="M16.0196 9.8826L32.1989 18.2377C33.3755 18.8453 34.0064 20.2725 33.608 21.4254C33.4576 21.8608 33.172 22.2136 32.7912 22.4343L13.6925 33.5053C12.6842 34.0898 11.2787 33.6194 10.5532 32.4546C10.2792 32.0147 10.1312 31.5168 10.1298 31.0306L10.0788 13.3264C10.0714 10.7514 11.5247 8.85184 14.009 9.25575C14.5041 9.33624 15.5507 9.64044 16.0196 9.8826Z" fill="#FF9600"/>
<path d="M32.3489 46.0707C37.6425 46.0707 41.9338 42.0841 41.9338 37.1662C41.9338 32.2484 37.6425 28.2617 32.3489 28.2617C27.0553 28.2617 22.764 32.2484 22.764 37.1662C22.764 42.0841 27.0553 46.0707 32.3489 46.0707Z" fill="#FFC800"/>
<path fill-rule="evenodd" clip-rule="evenodd" d="M33.7949 23.8261L39.4858 31.3021C39.8057 31.7224 39.7244 32.3224 39.3041 32.6423C39.1376 32.769 38.9342 32.8376 38.7249 32.8376H25.8212C25.2931 32.8376 24.8649 32.4095 24.8649 31.8813C24.8649 31.6721 24.9335 31.4686 25.0603 31.3021L30.7512 23.8261C31.391 22.9856 32.591 22.8229 33.4315 23.4627C33.5684 23.5669 33.6906 23.6891 33.7949 23.8261Z" fill="#FFC800"/>
<path d="M51.0928 1.75716L48.4571 4.39288C47.4867 5.36332 47.4867 6.93673 48.4571 7.90717L51.0928 10.5429C52.0633 11.5133 53.6367 11.5133 54.6071 10.5429L57.2429 7.90717C58.2133 6.93673 58.2133 5.36332 57.2429 4.39288L54.6071 1.75716C53.6367 0.786713 52.0633 0.786713 51.0928 1.75716Z" fill="#FF9600"/>
<path d="M3.07501 42.8347L1.31786 44.5918C0.590026 45.3196 0.590026 46.4997 1.31786 47.2275L3.07501 48.9847C3.80284 49.7125 4.98289 49.7125 5.71073 48.9847L7.46787 47.2275C8.19571 46.4997 8.19571 45.3196 7.46787 44.5918L5.71073 42.8347C4.98289 42.1068 3.80284 42.1068 3.07501 42.8347Z" fill="#FFC800"/>
</svg>
