<svg width="303" height="54" viewBox="0 0 303 54" fill="none" xmlns="http://www.w3.org/2000/svg">
<path d="M74.26 47H69.16C68.32 47 67.9 46.58 67.9 45.74V9.68C67.9 8.84 68.32 8.42 69.16 8.42H88.3C89.1 8.42 89.5 8.84 89.5 9.68V13.76C89.5 14.6 89.1 15.02 88.3 15.02H76.24C75.76 15.02 75.52 15.24 75.52 15.68V24.98C75.52 25.46 75.76 25.7 76.24 25.7H86.5C87.34 25.7 87.76 26.12 87.76 26.96V30.98C87.76 31.86 87.34 32.3 86.5 32.3H76.24C75.76 32.3 75.52 32.52 75.52 32.96V45.74C75.52 46.58 75.1 47 74.26 47ZM102.832 9.68V45.74C102.832 46.58 102.412 47 101.572 47H96.4717C95.6317 47 95.2117 46.58 95.2117 45.74V9.68C95.2117 8.84 95.6317 8.42 96.4717 8.42H101.572C102.412 8.42 102.832 8.84 102.832 9.68ZM117.268 47H112.168C111.328 47 110.908 46.58 110.908 45.74V9.68C110.908 8.84 111.328 8.42 112.168 8.42H126.448C129.568 8.42 132.008 9.28 133.768 11C135.528 12.72 136.408 15.14 136.408 18.26V22.94C136.408 27.46 134.628 30.46 131.068 31.94V32.18L137.488 45.56C137.848 46.52 137.508 47 136.468 47H131.608C130.888 47 130.368 46.92 130.048 46.76C129.728 46.6 129.468 46.26 129.268 45.74L123.268 32.78H119.248C118.768 32.78 118.528 33 118.528 33.44V45.74C118.528 46.58 118.108 47 117.268 47ZM119.188 26.66H125.068C126.348 26.66 127.288 26.4 127.888 25.88C128.488 25.32 128.788 24.44 128.788 23.24V18.56C128.788 17.32 128.488 16.42 127.888 15.86C127.288 15.3 126.348 15.02 125.068 15.02H119.188C118.748 15.02 118.528 15.24 118.528 15.68V26C118.528 26.44 118.748 26.66 119.188 26.66ZM164.6 47H144.98C144.14 47 143.72 46.58 143.72 45.74V9.68C143.72 8.84 144.14 8.42 144.98 8.42H164.6C165.4 8.42 165.8 8.84 165.8 9.68V13.76C165.8 14.6 165.4 15.02 164.6 15.02H152.06C151.58 15.02 151.34 15.24 151.34 15.68V23.48C151.34 23.92 151.58 24.14 152.06 24.14H162.32C163.16 24.14 163.58 24.56 163.58 25.4V29.48C163.58 30.32 163.16 30.74 162.32 30.74H152.06C151.58 30.74 151.34 30.96 151.34 31.4V39.74C151.34 40.18 151.58 40.4 152.06 40.4H164.6C165.4 40.4 165.8 40.82 165.8 41.66V45.74C165.8 46.58 165.4 47 164.6 47Z" fill="#223645"/>
<path d="M195.22 47H188.02C185.26 47 183.08 46.22 181.48 44.66C179.92 43.1 179.14 40.92 179.14 38.12V17.3C179.14 14.5 179.92 12.32 181.48 10.76C183.08 9.2 185.26 8.42 188.02 8.42H195.22C197.98 8.42 200.14 9.2 201.7 10.76C203.3 12.32 204.1 14.5 204.1 17.3V20.24C204.1 20.8 203.82 21.08 203.26 21.08H200.56C200 21.08 199.72 20.8 199.72 20.24V17.48C199.72 14 198.04 12.26 194.68 12.26H188.5C185.18 12.26 183.52 14 183.52 17.48V37.94C183.52 41.42 185.18 43.16 188.5 43.16H194.68C198.04 43.16 199.72 41.42 199.72 37.94V35.18C199.72 34.62 200 34.34 200.56 34.34H203.26C203.82 34.34 204.1 34.62 204.1 35.18V38.12C204.1 40.92 203.3 43.1 201.7 44.66C200.14 46.22 197.98 47 195.22 47ZM215.741 47H213.041C212.481 47 212.201 46.72 212.201 46.16V9.26C212.201 8.7 212.481 8.42 213.041 8.42H215.741C216.301 8.42 216.581 8.7 216.581 9.26V25.04C216.581 25.4 216.781 25.58 217.181 25.58H232.061C232.461 25.58 232.661 25.4 232.661 25.04V9.26C232.661 8.7 232.941 8.42 233.501 8.42H236.201C236.761 8.42 237.041 8.7 237.041 9.26V46.16C237.041 46.72 236.761 47 236.201 47H233.501C232.941 47 232.661 46.72 232.661 46.16V29.96C232.661 29.6 232.461 29.42 232.061 29.42H217.181C216.781 29.42 216.581 29.6 216.581 29.96V46.16C216.581 46.72 216.301 47 215.741 47ZM247.017 47H244.017C243.497 47 243.317 46.72 243.477 46.16L254.697 9.26C254.857 8.7 255.237 8.42 255.837 8.42H260.157C260.757 8.42 261.137 8.7 261.297 9.26L272.517 46.16C272.677 46.72 272.497 47 271.977 47H268.917C268.477 47 268.197 46.72 268.077 46.16L265.257 37.4H250.737L247.917 46.16C247.757 46.72 247.457 47 247.017 47ZM257.877 12.92L251.697 33.68H264.297L258.117 12.92H257.877ZM288.359 47H285.659C285.099 47 284.819 46.72 284.819 46.16V12.8C284.819 12.44 284.619 12.26 284.219 12.26H276.059C275.459 12.26 275.159 11.98 275.159 11.42V9.26C275.159 8.7 275.459 8.42 276.059 8.42H297.959C298.559 8.42 298.859 8.7 298.859 9.26V11.42C298.859 11.98 298.559 12.26 297.959 12.26H289.799C289.399 12.26 289.199 12.44 289.199 12.8V46.16C289.199 46.72 288.919 47 288.359 47Z" fill="#223645"/>
<path d="M32.3489 53.9859C44.7007 53.9859 54.7137 44.6836 54.7137 33.2087C54.7137 21.7338 44.7007 12.4315 32.3489 12.4315C19.9972 12.4315 9.98409 21.7338 9.98409 33.2087C9.98409 44.6836 19.9972 53.9859 32.3489 53.9859Z" fill="#FF9600"/>
<path fill-rule="evenodd" clip-rule="evenodd" d="M35.3487 2.63056L49.9733 20.4181C50.6544 21.2464 50.535 22.4701 49.7066 23.1512C49.3591 23.4369 48.9232 23.593 48.4734 23.593H16.2244C15.152 23.593 14.2826 22.7237 14.2826 21.6513C14.2826 21.2014 14.4388 20.7655 14.7245 20.4181L29.3491 2.63056C30.7112 0.973804 33.1586 0.734986 34.8153 2.09714C35.01 2.25722 35.1886 2.43586 35.3487 2.63056Z" fill="#FF9600"/>
<path fill-rule="evenodd" clip-rule="evenodd" d="M16.0196 9.8826L32.1989 18.2377C33.3755 18.8453 34.0064 20.2725 33.608 21.4254C33.4576 21.8608 33.172 22.2136 32.7912 22.4343L13.6925 33.5053C12.6842 34.0898 11.2787 33.6194 10.5532 32.4546C10.2792 32.0147 10.1312 31.5168 10.1298 31.0306L10.0788 13.3264C10.0714 10.7514 11.5247 8.85184 14.009 9.25575C14.5041 9.33624 15.5507 9.64044 16.0196 9.8826Z" fill="#FF9600"/>
<path d="M32.3489 46.0707C37.6425 46.0707 41.9338 42.0841 41.9338 37.1662C41.9338 32.2484 37.6425 28.2617 32.3489 28.2617C27.0553 28.2617 22.764 32.2484 22.764 37.1662C22.764 42.0841 27.0553 46.0707 32.3489 46.0707Z" fill="#FFC800"/>
<path fill-rule="evenodd" clip-rule="evenodd" d="M33.7949 23.8261L39.4858 31.3021C39.8057 31.7224 39.7244 32.3224 39.3041 32.6423C39.1376 32.769 38.9342 32.8377 38.7249 32.8377H25.8212C25.2931 32.8377 24.8649 32.4095 24.8649 31.8814C24.8649 31.6721 24.9335 31.4686 25.0603 31.3021L30.7512 23.8261C31.391 22.9856 32.591 22.8229 33.4315 23.4627C33.5684 23.567 33.6907 23.6892 33.7949 23.8261Z" fill="#FFC800"/>
<path d="M51.0928 1.75716L48.4571 4.39288C47.4867 5.36332 47.4867 6.93673 48.4571 7.90717L51.0928 10.5429C52.0633 11.5133 53.6367 11.5133 54.6071 10.5429L57.2429 7.90717C58.2133 6.93673 58.2133 5.36332 57.2429 4.39288L54.6071 1.75716C53.6367 0.786713 52.0633 0.786713 51.0928 1.75716Z" fill="#FF9600"/>
<path d="M3.07501 42.8347L1.31786 44.5918C0.590026 45.3197 0.590026 46.4997 1.31786 47.2276L3.07501 48.9847C3.80284 49.7125 4.98289 49.7125 5.71073 48.9847L7.46787 47.2276C8.19571 46.4997 8.19571 45.3197 7.46787 44.5918L5.71073 42.8347C4.98289 42.1069 3.80284 42.1069 3.07501 42.8347Z" fill="#FFC800"/>
</svg>
