<svg width="125" height="59" viewBox="0 0 125 59" fill="none" xmlns="http://www.w3.org/2000/svg">
<path d="M98.1914 24.0215C103.263 24.3431 107.926 25.0234 112.182 26.0625L109.287 51.2227C107.432 51.4948 105.576 51.6309 103.721 51.6309C101.89 51.6309 99.985 51.5072 98.0059 51.2598C96.0267 51.0371 94.1836 50.7526 92.4766 50.4062C89.013 49.7135 86.7865 49.0951 85.7969 48.5508C84.832 48.0065 84.1517 47.5241 83.7559 47.1035C83.3848 46.6582 83.1003 45.9779 82.9023 45.0625C82.7044 44.1224 82.4941 43.0091 82.2715 41.7227C82.0488 40.4115 81.8509 38.9889 81.6777 37.4551C81.2819 33.9421 81.084 31.1094 81.084 28.957C81.084 26.7799 81.0964 25.11 81.1211 23.9473C81.1458 22.7598 81.1953 21.597 81.2695 20.459C81.5169 15.8822 81.8138 13.0618 82.1602 11.998C82.5065 10.9342 82.8281 10.1178 83.125 9.54883C83.4219 8.95508 83.8424 8.4974 84.3867 8.17578C86.4896 6.96354 90.349 5.66471 95.9648 4.2793L99.8613 3.35156C103.251 2.5599 106.343 1.95378 109.139 1.5332L111.105 10.4766C110.388 10.625 109.473 10.7982 108.359 10.9961L100.752 12.2578C95.903 13.0495 92.8477 13.6556 91.5859 14.0762C90.8685 16.8965 90.5098 20.9785 90.5098 26.3223C90.5098 33.373 90.9427 38.5807 91.8086 41.9453C94.7279 43.0091 97.7337 43.541 100.826 43.541H101.531C101.754 43.541 101.952 43.5163 102.125 43.4668L103.201 32.2969L97.2637 32L98.1914 24.0215Z" fill="#FBB403"/>
<path d="M9.66 48.8367H4.56C3.72 48.8367 3.3 48.4167 3.3 47.5767V19.4967C3.3 18.6567 3.72 18.2367 4.56 18.2367H9.66C10.5 18.2367 10.92 18.6567 10.92 19.4967V21.4767H11.16C11.64 20.5167 12.44 19.7367 13.56 19.1367C14.72 18.5367 16.04 18.2367 17.52 18.2367H19.2C22.68 18.2367 25.18 19.5167 26.7 22.0767C28.06 19.5167 30.4 18.2367 33.72 18.2367H35.46C38.54 18.2367 40.86 19.0767 42.42 20.7567C44.02 22.4367 44.82 24.8567 44.82 28.0167V47.5767C44.82 48.4167 44.4 48.8367 43.56 48.8367H38.46C37.62 48.8367 37.2 48.4167 37.2 47.5767V28.3767C37.2 27.0967 36.94 26.1967 36.42 25.6767C35.9 25.1167 35 24.8367 33.72 24.8367H32.22C29.46 24.8367 28.08 26.3767 28.08 29.4567V47.5767C28.08 48.4167 27.64 48.8367 26.76 48.8367H21.72C20.88 48.8367 20.46 48.4167 20.46 47.5767V28.3767C20.46 27.0967 20.18 26.1967 19.62 25.6767C19.1 25.1167 18.2 24.8367 16.92 24.8367H15.06C12.3 24.8367 10.92 26.3567 10.92 29.3967V47.5767C10.92 48.4167 10.5 48.8367 9.66 48.8367ZM56.1511 58.9767H52.3111C51.5111 58.9767 51.1111 58.5367 51.1111 57.6567V53.6367C51.1111 52.7567 51.5111 52.3167 52.3111 52.3167H53.5711C56.0911 52.3167 57.7911 51.9567 58.6711 51.2367C59.5911 50.5567 60.2911 49.2167 60.7711 47.2167H57.5911C56.8311 47.2167 56.3311 46.7967 56.0911 45.9567L49.0711 19.4967C48.8311 18.6567 49.1311 18.2367 49.9711 18.2367H55.3111C56.1111 18.2367 56.6111 18.6567 56.8111 19.4967L61.9711 41.6367H62.2111L67.3111 19.4967C67.4711 18.6567 67.9711 18.2367 68.8111 18.2367H73.8511C74.8511 18.2367 75.2511 18.6767 75.0511 19.5567L67.7311 48.8367C66.8511 52.1567 65.4911 54.6767 63.6511 56.3967C61.8111 58.1167 59.3111 58.9767 56.1511 58.9767Z" fill="white"/>
<rect width="32" height="3.55102" transform="translate(0 46.53)" fill="#FBB403"/>
</svg>
