<svg width="91" height="84" viewBox="0 0 91 84" fill="none" xmlns="http://www.w3.org/2000/svg">
<path d="M49.8941 83.2663C68.9451 83.2663 84.389 68.9188 84.389 51.2201C84.389 33.5215 68.9451 19.174 49.8941 19.174C30.8431 19.174 15.3992 33.5215 15.3992 51.2201C15.3992 68.9188 30.8431 83.2663 49.8941 83.2663Z" fill="#FF9600"/>
<path fill-rule="evenodd" clip-rule="evenodd" d="M54.5209 4.0573L77.0775 31.4923C78.128 32.7699 77.9438 34.6573 76.6661 35.7077C76.1302 36.1484 75.4579 36.3893 74.7641 36.3893H25.0241C23.37 36.3893 22.0291 35.0484 22.0291 33.3943C22.0291 32.7005 22.27 32.0282 22.7106 31.4923L45.2672 4.0573C47.3682 1.50197 51.1429 1.13362 53.6982 3.23457C53.9985 3.48147 54.274 3.75701 54.5209 4.0573Z" fill="#FF9600"/>
<path fill-rule="evenodd" clip-rule="evenodd" d="M24.7083 15.2426L49.6627 28.1293C51.4774 29.0664 52.4505 31.2677 51.8361 33.0459C51.6041 33.7175 51.1636 34.2616 50.5762 34.602L21.119 51.6777C19.5638 52.5792 17.3959 51.8537 16.277 50.0571C15.8544 49.3786 15.6261 48.6107 15.6239 47.8607L15.5452 20.5542C15.5338 16.5826 17.7753 13.6528 21.6071 14.2758C22.3707 14.3999 23.985 14.8691 24.7083 15.2426Z" fill="#FF9600"/>
<path d="M49.8941 71.0583C58.0588 71.0583 64.6776 64.9093 64.6776 57.3242C64.6776 49.739 58.0588 43.5901 49.8941 43.5901C41.7293 43.5901 35.1105 49.739 35.1105 57.3242C35.1105 64.9093 41.7293 71.0583 49.8941 71.0583Z" fill="#FFC800"/>
<path fill-rule="evenodd" clip-rule="evenodd" d="M52.1243 36.7486L60.9019 48.2795C61.3953 48.9277 61.2698 49.8531 60.6216 50.3465C60.3648 50.542 60.051 50.6478 59.7283 50.6478H39.8259C39.0113 50.6478 38.351 49.9875 38.351 49.1729C38.351 48.8501 38.4568 48.5363 38.6523 48.2795L47.4299 36.7486C48.4167 35.4523 50.2675 35.2014 51.5638 36.1882C51.775 36.3489 51.9635 36.5374 52.1243 36.7486Z" fill="#FFC800"/>
<path d="M78.8042 2.71016L74.739 6.77542C73.2422 8.27221 73.2422 10.699 74.739 12.1958L78.8042 16.261C80.301 17.7578 82.7278 17.7578 84.2246 16.261L88.2898 12.1958C89.7866 10.699 89.7866 8.27221 88.2898 6.77542L84.2246 2.71016C82.7278 1.21337 80.301 1.21337 78.8042 2.71016Z" fill="#FF9600"/>
<path d="M4.74281 66.067L2.03263 68.7772C0.91004 69.8998 0.91004 71.7199 2.03263 72.8424L4.74281 75.5526C5.8654 76.6752 7.68548 76.6752 8.80807 75.5526L11.5182 72.8424C12.6408 71.7199 12.6408 69.8998 11.5182 68.7772L8.80807 66.067C7.68548 64.9444 5.8654 64.9444 4.74281 66.067Z" fill="#FFC800"/>
</svg>
